<?xml version="1.0" encoding="UTF-8"?>
<svg id="Layer_1" xmlns="http://www.w3.org/2000/svg" width="273.5" height="129.4" version="1.1" viewBox="0 0 273.5 129.4">
  <!-- Generator: Adobe Illustrator 29.6.1, SVG Export Plug-In . SVG Version: 2.1.1 Build 9)  -->
  <defs>
    <style>
      .st0 {
        fill: #231f20;
      }
    </style>
  </defs>
  <rect class="st0" x="52.4" y="0" width="5" height="5"/>
  <rect class="st0" x="58.9" y="0" width="5" height="5"/>
  <rect class="st0" x="65.5" y="0" width="5" height="5"/>
  <rect class="st0" x="52.4" y="6.5" width="5" height="5"/>
  <rect class="st0" x="45.8" y="6.5" width="5" height="5"/>
  <rect class="st0" x="58.9" y="6.5" width="5" height="5"/>
  <rect class="st0" x="65.5" y="6.5" width="5" height="5"/>
  <rect class="st0" x="72" y="6.5" width="5" height="5"/>
  <rect class="st0" x="52.4" y="13.1" width="5" height="5"/>
  <rect class="st0" x="45.8" y="13.1" width="5" height="5"/>
  <rect class="st0" x="58.9" y="13.1" width="5" height="5"/>
  <rect class="st0" x="65.5" y="13.1" width="5" height="5"/>
  <rect class="st0" x="72" y="13.1" width="5" height="5"/>
  <rect class="st0" x="52.4" y="19.6" width="5" height="5"/>
  <rect class="st0" x="39.3" y="19.6" width="5" height="5"/>
  <rect class="st0" x="45.8" y="19.6" width="5" height="5"/>
  <rect class="st0" x="58.9" y="19.6" width="5" height="5"/>
  <rect class="st0" x="65.5" y="19.6" width="5" height="5"/>
  <rect class="st0" x="72" y="19.6" width="5" height="5"/>
  <rect class="st0" x="78.6" y="19.6" width="5" height="5"/>
  <rect class="st0" x="52.4" y="26.2" width="5" height="5"/>
  <rect class="st0" x="39.3" y="26.2" width="5" height="5"/>
  <rect class="st0" x="45.8" y="26.2" width="5" height="5"/>
  <rect class="st0" x="58.9" y="26.2" width="5" height="5"/>
  <rect class="st0" x="65.5" y="26.2" width="5" height="5"/>
  <rect class="st0" x="72" y="26.2" width="5" height="5"/>
  <rect class="st0" x="78.6" y="26.2" width="5" height="5"/>
  <rect class="st0" x="52.4" y="32.7" width="5" height="5"/>
  <rect class="st0" x="39.3" y="32.7" width="5" height="5"/>
  <rect class="st0" x="45.8" y="32.7" width="5" height="5"/>
  <rect class="st0" x="58.9" y="32.7" width="5" height="5"/>
  <rect class="st0" x="65.5" y="32.7" width="5" height="5"/>
  <rect class="st0" x="72" y="32.7" width="5" height="5"/>
  <rect class="st0" x="78.6" y="32.7" width="5" height="5"/>
  <rect class="st0" x="52.4" y="39.3" width="5" height="5"/>
  <rect class="st0" x="39.3" y="39.3" width="5" height="5"/>
  <rect class="st0" x="45.8" y="39.3" width="5" height="5"/>
  <rect class="st0" x="65.5" y="39.3" width="5" height="5"/>
  <rect class="st0" x="72" y="39.3" width="5" height="5"/>
  <rect class="st0" x="78.6" y="39.3" width="5" height="5"/>
  <rect class="st0" x="52.4" y="45.8" width="5" height="5"/>
  <rect class="st0" x="39.3" y="45.8" width="5" height="5"/>
  <rect class="st0" x="45.8" y="45.8" width="5" height="5"/>
  <rect class="st0" x="65.5" y="45.8" width="5" height="5"/>
  <rect class="st0" x="72" y="45.8" width="5" height="5"/>
  <rect class="st0" x="78.6" y="45.8" width="5" height="5"/>
  <rect class="st0" x="52.4" y="52.4" width="5" height="5"/>
  <rect class="st0" x="39.3" y="52.4" width="5" height="5"/>
  <rect class="st0" x="45.8" y="52.4" width="5" height="5"/>
  <rect class="st0" x="65.5" y="52.4" width="5" height="5"/>
  <rect class="st0" x="72" y="52.4" width="5" height="5"/>
  <rect class="st0" x="78.6" y="52.4" width="5" height="5"/>
  <rect class="st0" x="39.3" y="58.9" width="5" height="5"/>
  <rect class="st0" x="45.8" y="58.9" width="5" height="5"/>
  <rect class="st0" x="72" y="58.9" width="5" height="5"/>
  <rect class="st0" x="78.6" y="58.9" width="5" height="5"/>
  <rect class="st0" x="39.3" y="65.5" width="5" height="5"/>
  <rect class="st0" x="45.8" y="65.5" width="5" height="5"/>
  <rect class="st0" x="72" y="65.5" width="5" height="5"/>
  <rect class="st0" x="78.6" y="65.5" width="5" height="5"/>
  <rect class="st0" x="39.3" y="72" width="5" height="5"/>
  <rect class="st0" x="78.6" y="72" width="5" height="5"/>
  <rect class="st0" x="52.4" y="78.6" width="5" height="5"/>
  <rect class="st0" x="39.3" y="78.6" width="5" height="5"/>
  <rect class="st0" x="45.8" y="78.6" width="5" height="5"/>
  <rect class="st0" x="58.9" y="78.6" width="5" height="5"/>
  <rect class="st0" x="65.5" y="78.6" width="5" height="5"/>
  <rect class="st0" x="72" y="78.6" width="5" height="5"/>
  <rect class="st0" x="78.6" y="78.6" width="5" height="5"/>
  <rect class="st0" x="52.4" y="85.1" width="5" height="5"/>
  <rect class="st0" x="39.3" y="85.1" width="5" height="5"/>
  <rect class="st0" x="45.8" y="85.1" width="5" height="5"/>
  <rect class="st0" x="58.9" y="85.1" width="5" height="5"/>
  <rect class="st0" x="65.5" y="85.1" width="5" height="5"/>
  <rect class="st0" x="72" y="85.1" width="5" height="5"/>
  <rect class="st0" x="78.6" y="85.1" width="5" height="5"/>
  <rect class="st0" x="52.4" y="91.7" width="5" height="5"/>
  <rect class="st0" x="39.3" y="91.7" width="5" height="5"/>
  <rect class="st0" x="45.8" y="91.7" width="5" height="5"/>
  <rect class="st0" x="58.9" y="91.7" width="5" height="5"/>
  <rect class="st0" x="65.5" y="91.7" width="5" height="5"/>
  <rect class="st0" x="72" y="91.7" width="5" height="5"/>
  <rect class="st0" x="78.6" y="91.7" width="5" height="5"/>
  <rect class="st0" x="52.4" y="98.2" width="5" height="5"/>
  <rect class="st0" x="39.3" y="98.2" width="5" height="5"/>
  <rect class="st0" x="45.8" y="98.2" width="5" height="5"/>
  <rect class="st0" x="58.9" y="98.2" width="5" height="5"/>
  <rect class="st0" x="65.5" y="98.2" width="5" height="5"/>
  <rect class="st0" x="72" y="98.2" width="5" height="5"/>
  <rect class="st0" x="78.6" y="98.2" width="5" height="5"/>
  <rect class="st0" x="85.1" y="32.7" width="5" height="5"/>
  <rect class="st0" x="32.7" y="32.7" width="5" height="5"/>
  <rect class="st0" x="32.7" y="39.3" width="5" height="5"/>
  <rect class="st0" x="32.7" y="45.8" width="5" height="5"/>
  <rect class="st0" x="26.2" y="52.4" width="5" height="5"/>
  <rect class="st0" x="32.7" y="52.4" width="5" height="5"/>
  <rect class="st0" x="26.2" y="58.9" width="5" height="5"/>
  <rect class="st0" x="32.7" y="58.9" width="5" height="5"/>
  <rect class="st0" x="19.6" y="65.5" width="5" height="5"/>
  <rect class="st0" x="19.6" y="72" width="5" height="5"/>
  <rect class="st0" x="19.6" y="78.6" width="5" height="5"/>
  <rect class="st0" x="13.1" y="85.1" width="5" height="5"/>
  <rect class="st0" x="19.6" y="85.1" width="5" height="5"/>
  <rect class="st0" x="26.2" y="65.5" width="5" height="5"/>
  <rect class="st0" x="26.2" y="72" width="5" height="5"/>
  <rect class="st0" x="26.2" y="78.6" width="5" height="5"/>
  <rect class="st0" x="26.2" y="85.1" width="5" height="5"/>
  <rect class="st0" x="32.7" y="65.5" width="5" height="5"/>
  <rect class="st0" x="32.7" y="72" width="5" height="5"/>
  <rect class="st0" x="32.7" y="78.6" width="5" height="5"/>
  <rect class="st0" x="32.7" y="85.1" width="5" height="5"/>
  <rect class="st0" x="13.1" y="91.7" width="5" height="5"/>
  <rect class="st0" x="13.1" y="98.2" width="5" height="5"/>
  <rect class="st0" x="13.1" y="104.8" width="5" height="5"/>
  <rect class="st0" x="6.5" y="104.8" width="5" height="5"/>
  <rect class="st0" x="6.5" y="111.3" width="5" height="5"/>
  <rect class="st0" x="13.1" y="111.3" width="5" height="5"/>
  <rect class="st0" x="19.6" y="91.7" width="5" height="5"/>
  <rect class="st0" x="19.6" y="98.2" width="5" height="5"/>
  <rect class="st0" x="19.6" y="104.8" width="5" height="5"/>
  <rect class="st0" x="19.6" y="111.3" width="5" height="5"/>
  <rect class="st0" x="26.2" y="91.7" width="5" height="5"/>
  <rect class="st0" x="26.2" y="98.2" width="5" height="5"/>
  <rect class="st0" x="26.2" y="104.8" width="5" height="5"/>
  <rect class="st0" x="26.2" y="111.3" width="5" height="5"/>
  <rect class="st0" x="32.7" y="91.7" width="5" height="5"/>
  <rect class="st0" x="32.7" y="98.2" width="5" height="5"/>
  <rect class="st0" x="32.7" y="104.8" width="5" height="5"/>
  <rect class="st0" x="13.1" y="117.9" width="5" height="5"/>
  <rect class="st0" x="6.5" y="117.9" width="5" height="5"/>
  <rect class="st0" x="6.5" y="124.4" width="5" height="5"/>
  <rect class="st0" x="13.1" y="124.4" width="5" height="5"/>
  <rect class="st0" x="19.6" y="117.9" width="5" height="5"/>
  <rect class="st0" x="19.6" y="124.4" width="5" height="5"/>
  <rect class="st0" x="26.2" y="117.9" width="5" height="5"/>
  <rect class="st0" x="0" y="117.9" width="5" height="5"/>
  <rect class="st0" x="0" y="124.4" width="5" height="5"/>
  <rect class="st0" x="85.1" y="39.3" width="5" height="5"/>
  <rect class="st0" x="85.1" y="45.8" width="5" height="5"/>
  <rect class="st0" x="91.7" y="52.4" width="5" height="5"/>
  <rect class="st0" x="85.1" y="52.4" width="5" height="5"/>
  <rect class="st0" x="91.7" y="58.9" width="5" height="5"/>
  <rect class="st0" x="85.1" y="58.9" width="5" height="5"/>
  <rect class="st0" x="98.2" y="65.5" width="5" height="5"/>
  <rect class="st0" x="98.2" y="72" width="5" height="5"/>
  <rect class="st0" x="98.2" y="78.6" width="5" height="5"/>
  <rect class="st0" x="104.8" y="85.1" width="5" height="5"/>
  <rect class="st0" x="98.2" y="85.1" width="5" height="5"/>
  <rect class="st0" x="91.7" y="65.5" width="5" height="5"/>
  <rect class="st0" x="91.7" y="72" width="5" height="5"/>
  <rect class="st0" x="91.7" y="78.6" width="5" height="5"/>
  <rect class="st0" x="91.7" y="85.1" width="5" height="5"/>
  <rect class="st0" x="85.1" y="65.5" width="5" height="5"/>
  <rect class="st0" x="85.1" y="72" width="5" height="5"/>
  <rect class="st0" x="85.1" y="78.6" width="5" height="5"/>
  <rect class="st0" x="85.1" y="85.1" width="5" height="5"/>
  <rect class="st0" x="104.8" y="91.7" width="5" height="5"/>
  <rect class="st0" x="104.8" y="98.2" width="5" height="5"/>
  <rect class="st0" x="104.8" y="104.8" width="5" height="5"/>
  <rect class="st0" x="111.3" y="104.8" width="5" height="5"/>
  <rect class="st0" x="117.9" y="104.8" width="5" height="5"/>
  <rect class="st0" x="111.3" y="111.3" width="5" height="5"/>
  <rect class="st0" x="117.9" y="111.3" width="5" height="5"/>
  <rect class="st0" x="104.8" y="111.3" width="5" height="5"/>
  <rect class="st0" x="98.2" y="91.7" width="5" height="5"/>
  <rect class="st0" x="98.2" y="98.2" width="5" height="5"/>
  <rect class="st0" x="98.2" y="104.8" width="5" height="5"/>
  <rect class="st0" x="98.2" y="111.3" width="5" height="5"/>
  <rect class="st0" x="91.7" y="91.7" width="5" height="5"/>
  <rect class="st0" x="91.7" y="98.2" width="5" height="5"/>
  <rect class="st0" x="91.7" y="104.8" width="5" height="5"/>
  <rect class="st0" x="91.7" y="111.3" width="5" height="5"/>
  <rect class="st0" x="85.1" y="91.7" width="5" height="5"/>
  <rect class="st0" x="85.1" y="98.2" width="5" height="5"/>
  <rect class="st0" x="85.1" y="104.8" width="5" height="5"/>
  <rect class="st0" x="104.8" y="117.9" width="5" height="5"/>
  <rect class="st0" x="111.3" y="117.9" width="5" height="5"/>
  <rect class="st0" x="111.3" y="124.4" width="5" height="5"/>
  <rect class="st0" x="124.4" y="104.8" width="5" height="5"/>
  <rect class="st0" x="124.4" y="98.2" width="5" height="5"/>
  <rect class="st0" x="117.9" y="98.2" width="5" height="5"/>
  <rect class="st0" x="124.4" y="91.7" width="5" height="5"/>
  <rect class="st0" x="124.4" y="85.1" width="5" height="5"/>
  <rect class="st0" x="124.4" y="78.6" width="5" height="5"/>
  <rect class="st0" x="124.4" y="72" width="5" height="5"/>
  <rect class="st0" x="124.4" y="111.3" width="5" height="5"/>
  <rect class="st0" x="124.4" y="117.9" width="5" height="5"/>
  <rect class="st0" x="124.4" y="124.4" width="5" height="5"/>
  <rect class="st0" x="131" y="104.8" width="5" height="5"/>
  <rect class="st0" x="131" y="98.2" width="5" height="5"/>
  <rect class="st0" x="131" y="91.7" width="5" height="5"/>
  <rect class="st0" x="131" y="85.1" width="5" height="5"/>
  <rect class="st0" x="131" y="78.6" width="5" height="5"/>
  <rect class="st0" x="131" y="72" width="5" height="5"/>
  <rect class="st0" x="131" y="111.3" width="5" height="5"/>
  <rect class="st0" x="131" y="117.9" width="5" height="5"/>
  <rect class="st0" x="131" y="124.4" width="5" height="5"/>
  <rect class="st0" x="131" y="45.8" width="5" height="5"/>
  <rect class="st0" x="131" y="39.3" width="5" height="5"/>
  <rect class="st0" x="131" y="32.7" width="5" height="5"/>
  <rect class="st0" x="137.5" y="26.2" width="5" height="5"/>
  <rect class="st0" x="137.5" y="19.6" width="5" height="5"/>
  <rect class="st0" x="137.5" y="13.1" width="5" height="5"/>
  <rect class="st0" x="137.5" y="6.5" width="5" height="5"/>
  <rect class="st0" x="137.5" y="0" width="5" height="5"/>
  <rect class="st0" x="131" y="52.4" width="5" height="5"/>
  <rect class="st0" x="131" y="58.9" width="5" height="5"/>
  <rect class="st0" x="131" y="65.5" width="5" height="5"/>
  <rect class="st0" x="137.5" y="45.8" width="5" height="5"/>
  <rect class="st0" x="137.5" y="39.3" width="5" height="5"/>
  <rect class="st0" x="137.5" y="32.7" width="5" height="5"/>
  <rect class="st0" x="137.5" y="52.4" width="5" height="5"/>
  <rect class="st0" x="137.5" y="58.9" width="5" height="5"/>
  <rect class="st0" x="137.5" y="65.5" width="5" height="5"/>
  <rect class="st0" x="124.4" y="65.5" width="5" height="5"/>
  <rect class="st0" x="137.5" y="104.8" width="5" height="5"/>
  <rect class="st0" x="137.5" y="98.2" width="5" height="5"/>
  <rect class="st0" x="137.5" y="91.7" width="5" height="5"/>
  <rect class="st0" x="137.5" y="85.1" width="5" height="5"/>
  <rect class="st0" x="137.5" y="78.6" width="5" height="5"/>
  <rect class="st0" x="137.5" y="72" width="5" height="5"/>
  <rect class="st0" x="144.1" y="26.2" width="5" height="5"/>
  <rect class="st0" x="144.1" y="19.6" width="5" height="5"/>
  <rect class="st0" x="144.1" y="13.1" width="5" height="5"/>
  <rect class="st0" x="144.1" y="6.5" width="5" height="5"/>
  <rect class="st0" x="144.1" y="0" width="5" height="5"/>
  <rect class="st0" x="144.1" y="45.8" width="5" height="5"/>
  <rect class="st0" x="144.1" y="39.3" width="5" height="5"/>
  <rect class="st0" x="144.1" y="32.7" width="5" height="5"/>
  <rect class="st0" x="144.1" y="52.4" width="5" height="5"/>
  <rect class="st0" x="144.1" y="58.9" width="5" height="5"/>
  <rect class="st0" x="150.6" y="26.2" width="5" height="5"/>
  <rect class="st0" x="150.6" y="19.6" width="5" height="5"/>
  <rect class="st0" x="150.6" y="13.1" width="5" height="5"/>
  <rect class="st0" x="150.6" y="6.5" width="5" height="5"/>
  <rect class="st0" x="150.6" y="0" width="5" height="5"/>
  <rect class="st0" x="150.6" y="45.8" width="5" height="5"/>
  <rect class="st0" x="150.6" y="39.3" width="5" height="5"/>
  <rect class="st0" x="150.6" y="32.7" width="5" height="5"/>
  <rect class="st0" x="157.2" y="26.2" width="5" height="5"/>
  <rect class="st0" x="157.2" y="19.6" width="5" height="5"/>
  <rect class="st0" x="157.2" y="13.1" width="5" height="5"/>
  <rect class="st0" x="157.2" y="6.5" width="5" height="5"/>
  <rect class="st0" x="157.2" y="0" width="5" height="5"/>
  <rect class="st0" x="157.2" y="45.8" width="5" height="5"/>
  <rect class="st0" x="157.2" y="52.4" width="5" height="5"/>
  <rect class="st0" x="157.2" y="58.9" width="5" height="5"/>
  <rect class="st0" x="157.2" y="39.3" width="5" height="5"/>
  <rect class="st0" x="157.2" y="32.7" width="5" height="5"/>
  <rect class="st0" x="150.6" y="52.4" width="5" height="5"/>
  <rect class="st0" x="163.7" y="26.2" width="5" height="5"/>
  <rect class="st0" x="163.7" y="19.6" width="5" height="5"/>
  <rect class="st0" x="163.7" y="13.1" width="5" height="5"/>
  <rect class="st0" x="163.7" y="45.8" width="5" height="5"/>
  <rect class="st0" x="163.7" y="39.3" width="5" height="5"/>
  <rect class="st0" x="163.7" y="32.7" width="5" height="5"/>
  <rect class="st0" x="163.7" y="52.4" width="5" height="5"/>
  <rect class="st0" x="163.7" y="58.9" width="5" height="5"/>
  <rect class="st0" x="144.1" y="65.5" width="5" height="5"/>
  <rect class="st0" x="144.1" y="85.1" width="5" height="5"/>
  <rect class="st0" x="144.1" y="78.6" width="5" height="5"/>
  <rect class="st0" x="144.1" y="72" width="5" height="5"/>
  <rect class="st0" x="163.7" y="65.5" width="5" height="5"/>
  <rect class="st0" x="163.7" y="85.1" width="5" height="5"/>
  <rect class="st0" x="163.7" y="78.6" width="5" height="5"/>
  <rect class="st0" x="163.7" y="72" width="5" height="5"/>
  <rect class="st0" x="183.4" y="65.5" width="5" height="5"/>
  <rect class="st0" x="183.4" y="85.1" width="5" height="5"/>
  <rect class="st0" x="183.4" y="78.6" width="5" height="5"/>
  <rect class="st0" x="183.4" y="72" width="5" height="5"/>
  <rect class="st0" x="176.8" y="65.5" width="5" height="5"/>
  <rect class="st0" x="176.8" y="85.1" width="5" height="5"/>
  <rect class="st0" x="176.8" y="78.6" width="5" height="5"/>
  <rect class="st0" x="183.4" y="98.2" width="5" height="5"/>
  <rect class="st0" x="183.4" y="91.7" width="5" height="5"/>
  <rect class="st0" x="176.8" y="98.2" width="5" height="5"/>
  <rect class="st0" x="176.8" y="91.7" width="5" height="5"/>
  <rect class="st0" x="176.8" y="72" width="5" height="5"/>
  <rect class="st0" x="170.3" y="65.5" width="5" height="5"/>
  <rect class="st0" x="170.3" y="85.1" width="5" height="5"/>
  <rect class="st0" x="170.3" y="78.6" width="5" height="5"/>
  <rect class="st0" x="170.3" y="72" width="5" height="5"/>
  <rect class="st0" x="170.3" y="39.3" width="5" height="5"/>
  <rect class="st0" x="170.3" y="58.9" width="5" height="5"/>
  <rect class="st0" x="170.3" y="52.4" width="5" height="5"/>
  <rect class="st0" x="170.3" y="45.8" width="5" height="5"/>
  <rect class="st0" x="170.3" y="32.7" width="5" height="5"/>
  <rect class="st0" x="176.8" y="58.9" width="5" height="5"/>
  <rect class="st0" x="176.8" y="52.4" width="5" height="5"/>
  <rect class="st0" x="176.8" y="45.8" width="5" height="5"/>
  <rect class="st0" x="137.5" y="111.3" width="5" height="5"/>
  <rect class="st0" x="137.5" y="117.9" width="5" height="5"/>
  <rect class="st0" x="176.8" y="104.8" width="5" height="5"/>
  <rect class="st0" x="170.3" y="98.2" width="5" height="5"/>
  <rect class="st0" x="170.3" y="91.7" width="5" height="5"/>
  <rect class="st0" x="176.8" y="111.3" width="5" height="5"/>
  <rect class="st0" x="176.8" y="117.9" width="5" height="5"/>
  <rect class="st0" x="104.8" y="124.4" width="5" height="5"/>
  <rect class="st0" x="98.2" y="117.9" width="5" height="5"/>
  <rect class="st0" x="98.2" y="124.4" width="5" height="5"/>
  <rect class="st0" x="91.7" y="117.9" width="5" height="5"/>
  <rect class="st0" x="117.9" y="117.9" width="5" height="5"/>
  <rect class="st0" x="117.9" y="124.4" width="5" height="5"/>
  <rect class="st0" x="189.9" y="124.4" width="5" height="5"/>
  <rect class="st0" x="189.9" y="117.9" width="5" height="5"/>
  <rect class="st0" x="189.9" y="111.3" width="5" height="5"/>
  <rect class="st0" x="189.9" y="104.8" width="5" height="5"/>
  <rect class="st0" x="183.4" y="117.9" width="5" height="5"/>
  <rect class="st0" x="183.4" y="111.3" width="5" height="5"/>
  <rect class="st0" x="183.4" y="104.8" width="5" height="4.5"/>
  <rect class="st0" x="189.9" y="98.2" width="5" height="5"/>
  <rect class="st0" x="189.9" y="91.7" width="5" height="5"/>
  <rect class="st0" x="183.4" y="124.4" width="5" height="5"/>
  <rect class="st0" x="262" y="104.8" width="5" height="5"/>
  <rect class="st0" x="262" y="111.3" width="5" height="5"/>
  <rect class="st0" x="255.4" y="104.8" width="5" height="5"/>
  <rect class="st0" x="255.4" y="98.2" width="5" height="5"/>
  <rect class="st0" x="262" y="98.2" width="5" height="5"/>
  <rect class="st0" x="255.4" y="91.7" width="5" height="5"/>
  <rect class="st0" x="255.4" y="85.1" width="5" height="5"/>
  <rect class="st0" x="255.4" y="78.6" width="5" height="5"/>
  <rect class="st0" x="255.4" y="72" width="5" height="5"/>
  <rect class="st0" x="255.4" y="111.3" width="5" height="5"/>
  <rect class="st0" x="255.4" y="117.9" width="5" height="5"/>
  <rect class="st0" x="255.4" y="124.4" width="5" height="5"/>
  <rect class="st0" x="248.9" y="104.8" width="5" height="5"/>
  <rect class="st0" x="248.9" y="98.2" width="5" height="5"/>
  <rect class="st0" x="248.9" y="91.7" width="5" height="5"/>
  <rect class="st0" x="248.9" y="85.1" width="5" height="5"/>
  <rect class="st0" x="248.9" y="78.6" width="5" height="5"/>
  <rect class="st0" x="248.9" y="72" width="5" height="5"/>
  <rect class="st0" x="248.9" y="111.3" width="5" height="5"/>
  <rect class="st0" x="248.9" y="117.9" width="5" height="5"/>
  <rect class="st0" x="248.9" y="124.4" width="5" height="5"/>
  <rect class="st0" x="248.9" y="45.8" width="5" height="5"/>
  <rect class="st0" x="248.9" y="39.3" width="5" height="5"/>
  <rect class="st0" x="248.9" y="32.7" width="5" height="5"/>
  <rect class="st0" x="242.3" y="26.2" width="5" height="5"/>
  <rect class="st0" x="242.3" y="19.6" width="5" height="5"/>
  <rect class="st0" x="242.3" y="13.1" width="5" height="5"/>
  <rect class="st0" x="242.3" y="6.5" width="5" height="5"/>
  <rect class="st0" x="242.3" y="0" width="5" height="5"/>
  <rect class="st0" x="248.9" y="52.4" width="5" height="5"/>
  <rect class="st0" x="248.9" y="58.9" width="5" height="5"/>
  <rect class="st0" x="248.9" y="65.5" width="5" height="5"/>
  <rect class="st0" x="242.3" y="45.8" width="5" height="5"/>
  <rect class="st0" x="242.3" y="39.3" width="5" height="5"/>
  <rect class="st0" x="242.3" y="32.7" width="5" height="5"/>
  <rect class="st0" x="242.3" y="52.4" width="5" height="5"/>
  <rect class="st0" x="242.3" y="58.9" width="5" height="5"/>
  <rect class="st0" x="242.3" y="65.5" width="5" height="5"/>
  <rect class="st0" x="255.4" y="65.5" width="5" height="5"/>
  <rect class="st0" x="242.3" y="104.8" width="5" height="5"/>
  <rect class="st0" x="242.3" y="98.2" width="5" height="5"/>
  <rect class="st0" x="242.3" y="91.7" width="5" height="5"/>
  <rect class="st0" x="242.3" y="85.1" width="5" height="5"/>
  <rect class="st0" x="242.3" y="78.6" width="5" height="5"/>
  <rect class="st0" x="242.3" y="72" width="5" height="5"/>
  <rect class="st0" x="235.8" y="26.2" width="5" height="5"/>
  <rect class="st0" x="235.8" y="19.6" width="5" height="5"/>
  <rect class="st0" x="235.8" y="13.1" width="5" height="5"/>
  <rect class="st0" x="235.8" y="6.5" width="5" height="5"/>
  <rect class="st0" x="235.8" y="0" width="5" height="5"/>
  <rect class="st0" x="235.8" y="45.8" width="5" height="5"/>
  <rect class="st0" x="235.8" y="39.3" width="5" height="5"/>
  <rect class="st0" x="235.8" y="32.7" width="5" height="5"/>
  <rect class="st0" x="235.8" y="52.4" width="5" height="5"/>
  <rect class="st0" x="235.8" y="58.9" width="5" height="5"/>
  <rect class="st0" x="229.2" y="26.2" width="5" height="5"/>
  <rect class="st0" x="229.2" y="19.6" width="5" height="5"/>
  <rect class="st0" x="229.2" y="13.1" width="5" height="5"/>
  <rect class="st0" x="229.2" y="6.5" width="5" height="5"/>
  <rect class="st0" x="229.2" y="0" width="5" height="5"/>
  <rect class="st0" x="229.2" y="45.8" width="5" height="5"/>
  <rect class="st0" x="229.2" y="39.3" width="5" height="5"/>
  <rect class="st0" x="229.2" y="32.7" width="5" height="5"/>
  <rect class="st0" x="222.7" y="26.2" width="5" height="5"/>
  <rect class="st0" x="222.7" y="19.6" width="5" height="5"/>
  <rect class="st0" x="222.7" y="13.1" width="5" height="5"/>
  <rect class="st0" x="222.7" y="6.5" width="5" height="5"/>
  <rect class="st0" x="222.7" y="0" width="5" height="5"/>
  <rect class="st0" x="222.7" y="45.8" width="5" height="5"/>
  <rect class="st0" x="222.7" y="52.4" width="5" height="5"/>
  <rect class="st0" x="222.7" y="58.9" width="5" height="5"/>
  <rect class="st0" x="222.7" y="39.3" width="5" height="5"/>
  <rect class="st0" x="222.7" y="32.7" width="5" height="5"/>
  <rect class="st0" x="229.2" y="52.4" width="5" height="5"/>
  <rect class="st0" x="216.1" y="26.2" width="5" height="5"/>
  <rect class="st0" x="216.1" y="19.6" width="5" height="5"/>
  <rect class="st0" x="216.1" y="13.1" width="5" height="5"/>
  <rect class="st0" x="216.1" y="45.8" width="5" height="5"/>
  <rect class="st0" x="216.1" y="39.3" width="5" height="5"/>
  <rect class="st0" x="216.1" y="32.7" width="5" height="5"/>
  <rect class="st0" x="216.1" y="52.4" width="5" height="5"/>
  <rect class="st0" x="216.1" y="58.9" width="5" height="5"/>
  <rect class="st0" x="235.8" y="65.5" width="5" height="5"/>
  <rect class="st0" x="235.8" y="85.1" width="5" height="5"/>
  <rect class="st0" x="235.8" y="78.6" width="5" height="5"/>
  <rect class="st0" x="235.8" y="72" width="5" height="5"/>
  <rect class="st0" x="216.1" y="65.5" width="5" height="5"/>
  <rect class="st0" x="216.1" y="85.1" width="5" height="5"/>
  <rect class="st0" x="216.1" y="78.6" width="5" height="5"/>
  <rect class="st0" x="216.1" y="72" width="5" height="5"/>
  <rect class="st0" x="196.5" y="65.5" width="5" height="5"/>
  <rect class="st0" x="196.5" y="85.1" width="5" height="5"/>
  <rect class="st0" x="196.5" y="78.6" width="5" height="5"/>
  <rect class="st0" x="196.5" y="72" width="5" height="5"/>
  <rect class="st0" x="203" y="65.5" width="5" height="5"/>
  <rect class="st0" x="203" y="85.1" width="5" height="5"/>
  <rect class="st0" x="203" y="78.6" width="5" height="5"/>
  <rect class="st0" x="196.5" y="98.2" width="5" height="5"/>
  <rect class="st0" x="196.5" y="91.7" width="5" height="5"/>
  <rect class="st0" x="203" y="98.2" width="5" height="5"/>
  <rect class="st0" x="203" y="91.7" width="5" height="5"/>
  <rect class="st0" x="203" y="72" width="5" height="5"/>
  <rect class="st0" x="209.6" y="65.5" width="5" height="5"/>
  <rect class="st0" x="209.6" y="85.1" width="5" height="5"/>
  <rect class="st0" x="209.6" y="78.6" width="5" height="5"/>
  <rect class="st0" x="209.6" y="72" width="5" height="5"/>
  <rect class="st0" x="209.6" y="39.3" width="5" height="5"/>
  <rect class="st0" x="209.6" y="58.9" width="5" height="5"/>
  <rect class="st0" x="209.6" y="52.4" width="5" height="5"/>
  <rect class="st0" x="209.6" y="45.8" width="5" height="5"/>
  <rect class="st0" x="209.6" y="32.7" width="5" height="5"/>
  <rect class="st0" x="203" y="58.9" width="5" height="5"/>
  <rect class="st0" x="203" y="52.4" width="5" height="5"/>
  <rect class="st0" x="203" y="45.8" width="5" height="5"/>
  <rect class="st0" x="242.3" y="111.3" width="5" height="5"/>
  <rect class="st0" x="242.3" y="117.9" width="5" height="5"/>
  <rect class="st0" x="203" y="104.8" width="5" height="5"/>
  <rect class="st0" x="209.6" y="98.2" width="5" height="5"/>
  <rect class="st0" x="209.6" y="91.7" width="5" height="5"/>
  <rect class="st0" x="203" y="111.3" width="5" height="5"/>
  <rect class="st0" x="203" y="117.9" width="5" height="5"/>
  <rect class="st0" x="262" y="117.9" width="5" height="5"/>
  <rect class="st0" x="262" y="124.4" width="5" height="5"/>
  <rect class="st0" x="268.5" y="124.4" width="5" height="5"/>
  <rect class="st0" x="268.5" y="117.9" width="5" height="5"/>
  <rect class="st0" x="196.5" y="117.9" width="5" height="5"/>
  <rect class="st0" x="196.5" y="111.3" width="5" height="5"/>
  <rect class="st0" x="196.5" y="104.8" width="5" height="5"/>
  <rect class="st0" x="196.5" y="124.4" width="5" height="5"/>
</svg>